# xmcd
#
# Track frame offsets:
# 150
# 25217
# 43842
# 61203
# 75105
# 92472
# 108224
# 129399
# 150766
# 173691
# 192772
# 213475
#
# Disc length: 3028 seconds
#
#
# Revision: 0
# Processed by: cddbd v1.4PL0 Copyright (c) Steve Scherf et al.
# Submitted via: FreeRIP 2.30 
#
DISCID=820bd20c
DTITLE=Just Country Band - Greatest Hits 1981 - 1992
DYEAR=1992
DGENRE=Country
TTITLE0=Dixieland Delight
TTITLE1=Better Man
TTITLE2=Faded Love
TTITLE3=Let's all help the Cowboys
TTITLE4=Halt mich
TTITLE5=On the Road again
TTITLE6=USA Today
TTITLE7=Home with the Armadillo
TTITLE8=Perfect C+W-Countrysong
TTITLE9=If you gonna play in Texas
TTITLE10=Orange Blossom Special
TTITLE11=Mountain Dew
EXTD=JH Licht- und Tontechnik, Postau
EXTT0=
EXTT1=
EXTT2=
EXTT3=
EXTT4=
EXTT5=
EXTT6=
EXTT7=
EXTT8=
EXTT9=
EXTT10=
EXTT11=
PLAYORDER=
